<svg width="260" height="120" viewBox="0 0 260 120" fill="none" xmlns="http://www.w3.org/2000/svg">
<rect y="113.865" width="259.666" height="5.55435" fill="white"/>
<path d="M20.1983 68.428C18.7096 68.428 17.3881 68.7207 16.2339 69.3062C15.0965 69.8749 14.1346 70.7029 13.3485 71.7902C12.579 72.8775 11.9935 74.1906 11.5921 75.7295C11.1906 77.2684 10.9899 78.9997 10.9899 80.9233C10.9899 83.5161 11.3077 85.7325 11.9434 87.5725C12.5957 89.3958 13.5994 90.7925 14.9543 91.7627C16.3092 92.7161 18.0572 93.1929 20.1983 93.1929C21.6871 93.1929 23.1758 93.0256 24.6645 92.6911C26.17 92.3565 27.8009 91.8798 29.5573 91.2609V97.7845C27.9347 98.4536 26.3373 98.9304 24.7649 99.2147C23.1925 99.5158 21.4278 99.6664 19.4707 99.6664C15.6903 99.6664 12.579 98.8885 10.1368 97.3329C7.71133 95.7605 5.91313 93.5692 4.74221 90.759C3.5713 87.9321 2.98584 84.6368 2.98584 80.8732C2.98584 78.0964 3.36221 75.5538 4.11494 73.2455C4.86767 70.9371 5.97168 68.9382 7.42696 67.2487C8.88224 65.5592 10.6804 64.2545 12.8215 63.3345C14.9626 62.4145 17.4216 61.9545 20.1983 61.9545C22.0216 61.9545 23.8449 62.1887 25.6682 62.657C27.5082 63.1087 29.2646 63.7359 30.9373 64.5389L28.4282 70.8618C27.0566 70.2094 25.6765 69.6407 24.2882 69.1556C22.8998 68.6705 21.5365 68.428 20.1983 68.428ZM70.6816 80.7728C70.6816 83.5997 70.3303 86.1757 69.6278 88.5008C68.9252 90.8092 67.8547 92.7998 66.4161 94.4725C64.9943 96.1453 63.1877 97.4333 60.9964 98.3365C58.8051 99.2231 56.2124 99.6664 53.2182 99.6664C50.224 99.6664 47.6312 99.2231 45.44 98.3365C43.2487 97.4333 41.4337 96.1453 39.9952 94.4725C38.5734 92.7998 37.5112 90.8009 36.8086 88.4757C36.1061 86.1506 35.7548 83.5663 35.7548 80.7226C35.7548 76.9255 36.3737 73.6218 37.6115 70.8116C38.8661 67.9847 40.7897 65.7934 43.3825 64.2378C45.9752 62.6821 49.2705 61.9043 53.2684 61.9043C57.2495 61.9043 60.5197 62.6821 63.079 64.2378C65.655 65.7934 67.5619 67.9847 68.7998 70.8116C70.0543 73.6386 70.6816 76.9589 70.6816 80.7728ZM43.9094 80.7728C43.9094 83.3321 44.2272 85.5401 44.8629 87.3968C45.5152 89.2368 46.5272 90.6587 47.8989 91.6623C49.2705 92.6492 51.0436 93.1427 53.2182 93.1427C55.4262 93.1427 57.216 92.6492 58.5877 91.6623C59.9593 90.6587 60.9546 89.2368 61.5735 87.3968C62.2092 85.5401 62.527 83.3321 62.527 80.7728C62.527 76.9255 61.8077 73.8978 60.3691 71.6898C58.9306 69.4818 56.5637 68.3778 53.2684 68.3778C51.0771 68.3778 49.2873 68.8796 47.8989 69.8833C46.5272 70.8702 45.5152 72.292 44.8629 74.1487C44.2272 75.9888 43.9094 78.1968 43.9094 80.7728ZM111.58 80.7728C111.58 83.5997 111.229 86.1757 110.526 88.5008C109.824 90.8092 108.753 92.7998 107.315 94.4725C105.893 96.1453 104.086 97.4333 101.895 98.3365C99.7036 99.2231 97.1109 99.6664 94.1167 99.6664C91.1225 99.6664 88.5297 99.2231 86.3384 98.3365C84.1471 97.4333 82.3322 96.1453 80.8937 94.4725C79.4718 92.7998 78.4096 90.8009 77.7071 88.4757C77.0045 86.1506 76.6533 83.5663 76.6533 80.7226C76.6533 76.9255 77.2722 73.6218 78.51 70.8116C79.7646 67.9847 81.6882 65.7934 84.2809 64.2378C86.8737 62.6821 90.169 61.9043 94.1668 61.9043C98.148 61.9043 101.418 62.6821 103.977 64.2378C106.553 65.7934 108.46 67.9847 109.698 70.8116C110.953 73.6386 111.58 76.9589 111.58 80.7728ZM84.8079 80.7728C84.8079 83.3321 85.1257 85.5401 85.7613 87.3968C86.4137 89.2368 87.4257 90.6587 88.7973 91.6623C90.169 92.6492 91.9421 93.1427 94.1167 93.1427C96.3247 93.1427 98.1145 92.6492 99.4861 91.6623C100.858 90.6587 101.853 89.2368 102.472 87.3968C103.108 85.5401 103.425 83.3321 103.425 80.7728C103.425 76.9255 102.706 73.8978 101.268 71.6898C99.8291 69.4818 97.4621 68.3778 94.1668 68.3778C91.9755 68.3778 90.1857 68.8796 88.7973 69.8833C87.4257 70.8702 86.4137 72.292 85.7613 74.1487C85.1257 75.9888 84.8079 78.1968 84.8079 80.7728ZM148.69 99.1646H139.858L130.248 83.7084L126.961 86.067V99.1646H119.183V62.4814H126.961V79.2673C127.479 78.548 127.99 77.8288 128.491 77.1095C128.993 76.3902 129.503 75.6709 130.022 74.9517L139.958 62.4814H148.589L135.793 78.7153L148.69 99.1646ZM153.307 99.1646V62.4814H161.085V99.1646H153.307ZM202.861 99.1646H192.976L177.018 71.4138H176.792C176.859 72.568 176.917 73.7306 176.967 74.9015C177.018 76.0724 177.068 77.2433 177.118 78.4142C177.168 79.5684 177.218 80.731 177.269 81.9019V99.1646H170.318V62.4814H180.129L196.062 89.9561H196.237C196.204 88.8187 196.162 87.6896 196.112 86.5688C196.062 85.4481 196.012 84.3274 195.961 83.2066C195.928 82.0859 195.894 80.9652 195.861 79.8444V62.4814H202.861V99.1646ZM226.046 78.5648H240.598V97.5838C238.675 98.2195 236.676 98.7296 234.602 99.1144C232.527 99.4824 230.177 99.6664 227.551 99.6664C223.904 99.6664 220.81 98.9471 218.267 97.5085C215.725 96.07 213.793 93.9456 212.471 91.1354C211.15 88.3252 210.489 84.871 210.489 80.7728C210.489 76.9255 211.225 73.5967 212.697 70.7865C214.186 67.9763 216.352 65.8018 219.196 64.2629C222.056 62.7239 225.544 61.9545 229.659 61.9545C231.599 61.9545 233.514 62.1636 235.405 62.5818C237.295 62.9999 239.009 63.5436 240.548 64.2127L237.964 70.4353C236.843 69.8665 235.563 69.3898 234.125 69.0051C232.686 68.6203 231.181 68.428 229.609 68.428C227.35 68.428 225.385 68.9465 223.712 69.9836C222.056 71.0207 220.768 72.476 219.848 74.3495C218.945 76.2062 218.493 78.3975 218.493 80.9233C218.493 83.3153 218.819 85.4397 219.472 87.2965C220.124 89.1365 221.153 90.5834 222.558 91.6372C223.963 92.6743 225.795 93.1929 228.053 93.1929C229.157 93.1929 230.085 93.1427 230.838 93.0423C231.607 92.9252 232.327 92.8081 232.996 92.6911V85.0383H226.046V78.5648ZM247.674 95.5765C247.674 94.0042 248.101 92.9001 248.954 92.2645C249.824 91.6289 250.869 91.311 252.09 91.311C253.278 91.311 254.298 91.6289 255.151 92.2645C256.021 92.9001 256.456 94.0042 256.456 95.5765C256.456 97.082 256.021 98.1693 255.151 98.8384C254.298 99.5075 253.278 99.842 252.09 99.842C250.869 99.842 249.824 99.5075 248.954 98.8384C248.101 98.1693 247.674 97.082 247.674 95.5765Z" fill="black"/>
<path d="M20.1983 24.2634C18.7096 24.2634 17.3881 24.5562 16.2339 25.1416C15.0965 25.7103 14.1346 26.5383 13.3485 27.6256C12.579 28.7129 11.9935 30.026 11.5921 31.5649C11.1906 33.1038 10.9899 34.8351 10.9899 36.7588C10.9899 39.3515 11.3077 41.5679 11.9434 43.4079C12.5957 45.2312 13.5994 46.6279 14.9543 47.5981C16.3092 48.5516 18.0572 49.0283 20.1983 49.0283C21.6871 49.0283 23.1758 48.861 24.6645 48.5265C26.17 48.192 27.8009 47.7152 29.5573 47.0963V53.62C27.9347 54.2891 26.3373 54.7658 24.7649 55.0502C23.1925 55.3513 21.4278 55.5018 19.4707 55.5018C15.6903 55.5018 12.579 54.724 10.1368 53.1684C7.71133 51.596 5.91313 49.4047 4.74221 46.5945C3.5713 43.7676 2.98584 40.4723 2.98584 36.7086C2.98584 33.9319 3.36221 31.3893 4.11494 29.0809C4.86767 26.7725 5.97168 24.7736 7.42696 23.0841C8.88224 21.3947 10.6804 20.0899 12.8215 19.1699C14.9626 18.2499 17.4216 17.7899 20.1983 17.7899C22.0216 17.7899 23.8449 18.0241 25.6682 18.4925C27.5082 18.9441 29.2646 19.5714 30.9373 20.3743L28.4282 26.6973C27.0566 26.0449 25.6765 25.4762 24.2882 24.9911C22.8998 24.506 21.5365 24.2634 20.1983 24.2634ZM59.0393 44.813C59.0393 46.9876 58.5124 48.8778 57.4586 50.4836C56.4048 52.0894 54.8658 53.3273 52.8418 54.1971C50.8345 55.0669 48.3923 55.5018 45.5152 55.5018C44.2439 55.5018 42.9978 55.4182 41.7767 55.2509C40.5723 55.0836 39.4097 54.8411 38.289 54.5233C37.185 54.1887 36.1312 53.7789 35.1275 53.2938V46.0676C36.8672 46.837 38.6737 47.5312 40.5472 48.1501C42.4207 48.769 44.2774 49.0785 46.1174 49.0785C47.3887 49.0785 48.4091 48.9112 49.1785 48.5767C49.9647 48.2421 50.5334 47.7821 50.8847 47.1967C51.236 46.6112 51.4116 45.9421 51.4116 45.1894C51.4116 44.2694 51.1022 43.4832 50.4833 42.8308C49.8643 42.1785 49.0113 41.5679 47.924 40.9992C46.8534 40.4304 45.6407 39.8199 44.2858 39.1675C43.4327 38.7661 42.5043 38.281 41.5007 37.7122C40.497 37.1268 39.5435 36.4159 38.6403 35.5795C37.737 34.7431 36.9926 33.7311 36.4072 32.5435C35.8384 31.3391 35.5541 29.9006 35.5541 28.2278C35.5541 26.0365 36.0559 24.1631 37.0595 22.6074C38.0632 21.0518 39.4934 19.8641 41.3501 19.0445C43.2236 18.2081 45.4316 17.7899 47.9742 17.7899C49.8811 17.7899 51.696 18.0157 53.4189 18.4674C55.1586 18.9023 56.9735 19.5379 58.8637 20.3743L56.3546 26.4213C54.6651 25.7354 53.1513 25.2085 51.8131 24.8405C50.4749 24.4558 49.1116 24.2634 47.7232 24.2634C46.7531 24.2634 45.925 24.4223 45.2392 24.7402C44.5534 25.0412 44.0349 25.4762 43.6836 26.0449C43.3323 26.5969 43.1567 27.2409 43.1567 27.9769C43.1567 28.8467 43.4076 29.5827 43.9094 30.1849C44.4279 30.7704 45.1974 31.3391 46.2178 31.8911C47.2549 32.4431 48.5429 33.0871 50.0818 33.8231C51.9553 34.7097 53.5527 35.638 54.8742 36.6082C56.2124 37.5617 57.2411 38.6908 57.9604 39.9955C58.6797 41.2835 59.0393 42.8894 59.0393 44.813ZM88.145 55L85.4853 46.2683H72.1118L69.4521 55H61.0717L74.0187 18.1663H83.5282L96.5254 55H88.145ZM83.6286 39.7446L80.9689 31.2137C80.8017 30.6449 80.5758 29.9173 80.2915 29.0307C80.0238 28.1274 79.7478 27.2158 79.4635 26.2958C79.1958 25.3591 78.9784 24.5478 78.8111 23.862C78.6438 24.5478 78.4096 25.4009 78.1085 26.4213C77.8242 27.4249 77.5482 28.3784 77.2805 29.2816C77.0129 30.1849 76.8205 30.8289 76.7034 31.2137L74.0689 39.7446H83.6286ZM146.231 18.3168L136.897 55H128.04L123.072 35.73C122.971 35.362 122.838 34.8017 122.67 34.0489C122.503 33.2962 122.327 32.4766 122.143 31.59C121.959 30.6867 121.792 29.842 121.642 29.0558C121.508 28.2529 121.416 27.6173 121.366 27.1489C121.315 27.6173 121.215 28.2445 121.064 29.0307C120.931 29.8169 120.772 30.6533 120.588 31.5398C120.42 32.4264 120.253 33.2544 120.086 34.0239C119.919 34.7933 119.785 35.3788 119.684 35.7802L114.742 55H105.909L96.5505 18.3168H104.203L108.895 38.3395C109.029 38.9417 109.18 39.661 109.347 40.4974C109.531 41.3337 109.707 42.2119 109.874 43.1319C110.058 44.0352 110.217 44.9134 110.351 45.7665C110.501 46.6029 110.61 47.3305 110.677 47.9494C110.76 47.3138 110.869 46.5778 111.003 45.7414C111.137 44.8883 111.279 44.0268 111.43 43.157C111.597 42.2705 111.764 41.4508 111.931 40.6981C112.099 39.9453 112.249 39.3348 112.383 38.8664L117.727 18.3168H125.079L130.423 38.8664C130.541 39.3181 130.674 39.9286 130.825 40.6981C130.992 41.4508 131.159 42.2705 131.327 43.157C131.494 44.0436 131.645 44.9134 131.778 45.7665C131.929 46.6029 132.038 47.3305 132.105 47.9494C132.222 47.113 132.381 46.101 132.581 44.9134C132.799 43.709 133.025 42.513 133.259 41.3254C133.51 40.1377 133.727 39.1424 133.911 38.3395L138.578 18.3168H146.231Z" fill="black"/>
</svg>
