<svg width="172" height="79" viewBox="0 0 172 79" fill="none" xmlns="http://www.w3.org/2000/svg">
<rect y="75.3256" width="171.779" height="3.67442" fill="#F18A04"/>
<path d="M13.362 44.883C12.3771 44.883 11.5029 45.0767 10.7394 45.464C9.98689 45.8402 9.35061 46.388 8.83052 47.1073C8.32149 47.8265 7.93419 48.6952 7.66861 49.7133C7.40303 50.7313 7.27024 51.8766 7.27024 53.1492C7.27024 54.8644 7.48049 56.3306 7.90099 57.5479C8.33256 58.754 8.9965 59.678 9.89283 60.3198C10.7892 60.9506 11.9455 61.266 13.362 61.266C14.3468 61.266 15.3317 61.1553 16.3165 60.934C17.3125 60.7127 18.3914 60.3973 19.5533 59.9879V64.3035C18.4799 64.7462 17.4231 65.0615 16.3829 65.2497C15.3427 65.4488 14.1753 65.5484 12.8806 65.5484C10.3797 65.5484 8.32149 65.0339 6.70588 64.0048C5.10134 62.9646 3.91176 61.5149 3.13716 59.6559C2.36255 57.7858 1.97525 55.6058 1.97525 53.116C1.97525 51.2791 2.22423 49.5971 2.72219 48.07C3.22015 46.5429 3.95049 45.2205 4.91322 44.1029C5.87595 42.9852 7.06552 42.1221 8.48194 41.5135C9.89837 40.9049 11.525 40.6006 13.362 40.6006C14.5681 40.6006 15.7743 40.7555 16.9805 41.0653C18.1977 41.3641 19.3596 41.7791 20.4662 42.3102L18.8063 46.4931C17.8989 46.0615 16.986 45.6853 16.0676 45.3644C15.1491 45.0435 14.2472 44.883 13.362 44.883ZM46.7586 53.0496C46.7586 54.9197 46.5262 56.6239 46.0614 58.162C45.5967 59.6891 44.8885 61.0059 43.9368 62.1125C42.9962 63.2191 41.8011 64.0711 40.3515 64.6687C38.9019 65.2552 37.1867 65.5484 35.2059 65.5484C33.2251 65.5484 31.5099 65.2552 30.0603 64.6687C28.6107 64.0711 27.41 63.2191 26.4584 62.1125C25.5178 61.0059 24.8151 59.6836 24.3503 58.1454C23.8856 56.6073 23.6532 54.8976 23.6532 53.0164C23.6532 50.5045 24.0626 48.319 24.8815 46.4599C25.7114 44.5898 26.984 43.1402 28.6992 42.111C30.4144 41.0819 32.5943 40.5674 35.2391 40.5674C37.8727 40.5674 40.0361 41.0819 41.7292 42.111C43.4333 43.1402 44.6948 44.5898 45.5137 46.4599C46.3436 48.33 46.7586 50.5266 46.7586 53.0496ZM29.0478 53.0496C29.0478 54.7427 29.258 56.2034 29.6785 57.4317C30.1101 58.6489 30.7796 59.5895 31.6869 60.2534C32.5943 60.9063 33.7673 61.2328 35.2059 61.2328C36.6666 61.2328 37.8506 60.9063 38.758 60.2534C39.6654 59.5895 40.3238 58.6489 40.7332 57.4317C41.1538 56.2034 41.364 54.7427 41.364 53.0496C41.364 50.5045 40.8882 48.5016 39.9365 47.0409C38.9849 45.5802 37.419 44.8498 35.2391 44.8498C33.7895 44.8498 32.6054 45.1818 31.6869 45.8458C30.7796 46.4986 30.1101 47.4392 29.6785 48.6675C29.258 49.8848 29.0478 51.3455 29.0478 53.0496ZM73.8145 53.0496C73.8145 54.9197 73.5821 56.6239 73.1173 58.162C72.6526 59.6891 71.9444 61.0059 70.9927 62.1125C70.0521 63.2191 68.857 64.0711 67.4074 64.6687C65.9578 65.2552 64.2426 65.5484 62.2618 65.5484C60.281 65.5484 58.5658 65.2552 57.1162 64.6687C55.6666 64.0711 54.4659 63.2191 53.5143 62.1125C52.5737 61.0059 51.871 59.6836 51.4062 58.1454C50.9415 56.6073 50.7091 54.8976 50.7091 53.0164C50.7091 50.5045 51.1185 48.319 51.9374 46.4599C52.7673 44.5898 54.0399 43.1402 55.7551 42.111C57.4703 41.0819 59.6503 40.5674 62.295 40.5674C64.9286 40.5674 67.092 41.0819 68.7851 42.111C70.4892 43.1402 71.7507 44.5898 72.5696 46.4599C73.3995 48.33 73.8145 50.5266 73.8145 53.0496ZM56.1037 53.0496C56.1037 54.7427 56.3139 56.2034 56.7344 57.4317C57.166 58.6489 57.8355 59.5895 58.7429 60.2534C59.6503 60.9063 60.8232 61.2328 62.2618 61.2328C63.7225 61.2328 64.9065 60.9063 65.8139 60.2534C66.7213 59.5895 67.3797 58.6489 67.7892 57.4317C68.2097 56.2034 68.4199 54.7427 68.4199 53.0496C68.4199 50.5045 67.9441 48.5016 66.9924 47.0409C66.0408 45.5802 64.4749 44.8498 62.295 44.8498C60.8454 44.8498 59.6613 45.1818 58.7429 45.8458C57.8355 46.4986 57.166 47.4392 56.7344 48.6675C56.3139 49.8848 56.1037 51.3455 56.1037 53.0496ZM98.364 65.2165H92.5212L86.1639 54.9917L83.9895 56.5519V65.2165H78.8439V40.9491H83.9895V52.0537C84.3325 51.5778 84.6701 51.102 85.002 50.6262C85.334 50.1504 85.6715 49.6745 86.0146 49.1987L92.5876 40.9491H98.2976L89.8323 51.6885L98.364 65.2165ZM101.418 65.2165V40.9491H106.564V65.2165H101.418ZM134.201 65.2165H127.661L117.104 46.8583H116.955C116.999 47.6218 117.038 48.3909 117.071 49.1655C117.104 49.9401 117.137 50.7147 117.17 51.4893C117.204 52.2529 117.237 53.0219 117.27 53.7965V65.2165H112.672V40.9491H119.162L129.702 59.1247H129.819C129.796 58.3723 129.769 57.6253 129.736 56.8839C129.702 56.1425 129.669 55.4011 129.636 54.6597C129.614 53.9183 129.592 53.1769 129.57 52.4354V40.9491H134.201V65.2165ZM149.538 51.5889H159.165V64.1707C157.893 64.5912 156.57 64.9288 155.198 65.1833C153.826 65.4267 152.271 65.5484 150.534 65.5484C148.121 65.5484 146.074 65.0726 144.392 64.1209C142.71 63.1693 141.432 61.7639 140.558 59.9049C139.684 58.0458 139.247 55.7607 139.247 53.0496C139.247 50.5045 139.734 48.3024 140.707 46.4433C141.692 44.5843 143.125 43.1457 145.006 42.1276C146.899 41.1096 149.206 40.6006 151.928 40.6006C153.212 40.6006 154.479 40.7389 155.729 41.0155C156.98 41.2922 158.114 41.6518 159.132 42.0944L157.422 46.2109C156.681 45.8347 155.834 45.5193 154.883 45.2648C153.931 45.0103 152.935 44.883 151.895 44.883C150.401 44.883 149.101 45.2261 147.994 45.9122C146.899 46.5982 146.047 47.561 145.438 48.8003C144.84 50.0286 144.542 51.4783 144.542 53.1492C144.542 54.7316 144.757 56.137 145.189 57.3653C145.621 58.5825 146.301 59.5397 147.231 60.2368C148.16 60.9229 149.372 61.266 150.866 61.266C151.596 61.266 152.21 61.2328 152.708 61.1664C153.217 61.0889 153.693 61.0115 154.136 60.934V55.8714H149.538V51.5889ZM163.846 62.8428C163.846 61.8027 164.128 61.0723 164.692 60.6518C165.268 60.2313 165.96 60.0211 166.767 60.0211C167.553 60.0211 168.228 60.2313 168.792 60.6518C169.368 61.0723 169.655 61.8027 169.655 62.8428C169.655 63.8388 169.368 64.558 168.792 65.0007C168.228 65.4433 167.553 65.6646 166.767 65.6646C165.96 65.6646 165.268 65.4433 164.692 65.0007C164.128 64.558 163.846 63.8388 163.846 62.8428Z" fill="black"/>
<path d="M13.362 15.6666C12.3771 15.6666 11.5029 15.8602 10.7394 16.2475C9.98689 16.6238 9.35061 17.1715 8.83052 17.8908C8.32149 18.6101 7.93419 19.4787 7.66861 20.4968C7.40303 21.5149 7.27024 22.6602 7.27024 23.9327C7.27024 25.6479 7.48049 27.1142 7.90099 28.3314C8.33256 29.5376 8.9965 30.4616 9.89283 31.1034C10.7892 31.7341 11.9455 32.0495 13.362 32.0495C14.3468 32.0495 15.3317 31.9388 16.3165 31.7175C17.3125 31.4962 18.3914 31.1808 19.5533 30.7714V35.0871C18.4799 35.5297 17.4231 35.8451 16.3829 36.0332C15.3427 36.2324 14.1753 36.332 12.8806 36.332C10.3797 36.332 8.32149 35.8174 6.70588 34.7883C5.10134 33.7481 3.91176 32.2985 3.13716 30.4394C2.36255 28.5693 1.97525 26.3893 1.97525 23.8995C1.97525 22.0626 2.22423 20.3806 2.72219 18.8535C3.22015 17.3264 3.95049 16.0041 4.91322 14.8864C5.87595 13.7688 7.06552 12.9057 8.48194 12.297C9.89837 11.6884 11.525 11.3841 13.362 11.3841C14.5681 11.3841 15.7743 11.539 16.9805 11.8489C18.1977 12.1476 19.3596 12.5626 20.4662 13.0938L18.8063 17.2766C17.8989 16.8451 16.986 16.4688 16.0676 16.1479C15.1491 15.827 14.2472 15.6666 13.362 15.6666ZM39.0568 29.2609C39.0568 30.6995 38.7082 31.9499 38.0111 33.0122C37.3139 34.0745 36.2959 34.8934 34.9569 35.4688C33.629 36.0443 32.0134 36.332 30.1101 36.332C29.2691 36.332 28.4447 36.2766 27.6369 36.166C26.8401 36.0553 26.0711 35.8949 25.3296 35.6846C24.5993 35.4633 23.9022 35.1922 23.2382 34.8713V30.0909C24.389 30.5999 25.5842 31.0591 26.8235 31.4686C28.0629 31.878 29.2912 32.0827 30.5084 32.0827C31.3494 32.0827 32.0245 31.972 32.5335 31.7507C33.0536 31.5294 33.4298 31.2251 33.6622 30.8378C33.8946 30.4505 34.0108 30.0079 34.0108 29.5099C34.0108 28.9013 33.8061 28.3812 33.3966 27.9496C32.9872 27.5181 32.4228 27.1142 31.7035 26.7379C30.9953 26.3617 30.1931 25.9578 29.2967 25.5262C28.7324 25.2606 28.1182 24.9397 27.4543 24.5635C26.7903 24.1762 26.1596 23.7059 25.562 23.1526C24.9645 22.5993 24.472 21.9298 24.0847 21.1441C23.7085 20.3474 23.5204 19.3958 23.5204 18.2892C23.5204 16.8395 23.8524 15.6002 24.5163 14.5711C25.1803 13.5419 26.1264 12.7563 27.3547 12.214C28.5941 11.6607 30.0547 11.3841 31.7367 11.3841C32.9982 11.3841 34.1989 11.5335 35.3387 11.8323C36.4895 12.12 37.6902 12.5405 38.9406 13.0938L37.2807 17.0941C36.1631 16.6404 35.1616 16.2918 34.2763 16.0483C33.3911 15.7938 32.4892 15.6666 31.5708 15.6666C30.9289 15.6666 30.3812 15.7717 29.9275 15.9819C29.4738 16.1811 29.1307 16.4688 28.8984 16.8451C28.666 17.2103 28.5498 17.6363 28.5498 18.1232C28.5498 18.6986 28.7158 19.1855 29.0478 19.5839C29.3908 19.9712 29.8998 20.3474 30.5748 20.7126C31.2609 21.0778 32.113 21.5038 33.131 21.9907C34.3704 22.5772 35.4272 23.1913 36.3014 23.8331C37.1867 24.4639 37.8672 25.2108 38.343 26.074C38.8189 26.926 39.0568 27.9884 39.0568 29.2609ZM58.3113 36L56.5518 30.2236H47.7047L45.9452 36H40.4013L48.9662 11.6331H55.2571L63.8553 36H58.3113ZM55.3235 25.908L53.5641 20.2644C53.4534 19.8882 53.304 19.4068 53.1159 18.8203C52.9388 18.2228 52.7563 17.6197 52.5681 17.0111C52.3911 16.3914 52.2472 15.8547 52.1366 15.401C52.0259 15.8547 51.871 16.419 51.6718 17.0941C51.4837 17.758 51.3011 18.3888 51.124 18.9863C50.947 19.5839 50.8197 20.0099 50.7423 20.2644L48.9994 25.908H55.3235ZM96.7373 11.7327L90.5626 36H84.7032L81.4167 23.2522C81.3503 23.0087 81.2618 22.638 81.1511 22.1401C81.0405 21.6421 80.9243 21.0999 80.8026 20.5134C80.6808 19.9158 80.5702 19.357 80.4706 18.8369C80.3821 18.3058 80.3212 17.8853 80.288 17.5754C80.2548 17.8853 80.1884 18.3002 80.0888 18.8203C80.0003 19.3404 79.8952 19.8937 79.7734 20.4802C79.6628 21.0667 79.5521 21.6144 79.4415 22.1235C79.3308 22.6325 79.2423 23.0198 79.1759 23.2854L75.9059 36H70.0632L63.8719 11.7327H68.9345L72.0384 24.9785C72.127 25.3768 72.2265 25.8527 72.3372 26.4059C72.4589 26.9592 72.5751 27.5402 72.6858 28.1488C72.8075 28.7464 72.9126 29.3273 73.0012 29.8917C73.1007 30.445 73.1727 30.9263 73.2169 31.3358C73.2723 30.9153 73.3442 30.4284 73.4327 29.8751C73.5212 29.3107 73.6153 28.7408 73.7149 28.1654C73.8256 27.5789 73.9362 27.0367 74.0469 26.5387C74.1575 26.0408 74.2571 25.6369 74.3457 25.327L77.8812 11.7327H82.7446L86.2801 25.327C86.3576 25.6258 86.4461 26.0297 86.5457 26.5387C86.6564 27.0367 86.767 27.5789 86.8777 28.1654C86.9883 28.7519 87.0879 29.3273 87.1765 29.8917C87.2761 30.445 87.348 30.9263 87.3922 31.3358C87.4697 30.7825 87.5748 30.113 87.7076 29.3273C87.8515 28.5306 88.0009 27.7394 88.1558 26.9537C88.3218 26.168 88.4656 25.5096 88.5873 24.9785L91.6747 11.7327H96.7373Z" fill="black"/>
</svg>
